#!OML:ASF I:\Actors\actors\Patient Classification 2\Patient 1\Session 1\actor1.ASF
:FULLY-SPECIFIED
:DEGREES
490
root -0.567415 18.6551 6.08158 0.487071 -0.753806 -4.30647
lowerback 6.23712 0.213432 -1.93033
upperback -4.12016 0.198533 1.38192
thorax -7.8488 0.244249 2.51536
lowerneck -13.8068 -0.880394 -2.87702
upperneck 14.7844 -1.87722 7.37765
head 6.88874 -0.419318 2.67829
rclavicle 4.22417e-016 -1.23246e-014
rhumerus -55.5161 -8.08213 -71.5547
rradius 46.8504
rwrist 10.7573
rhand -4.49643 -44.5508
rfingers 7.12502
rthumb 21.2772 -73.4029
lclavicle 4.22417e-016 -1.23246e-014
lhumerus 31.2012 -19.9205 49.9001
lradius 138.369
lwrist 14.6641
lhand -23.1512 -52.8892
lfingers 7.12502
lthumb 3.2971 -22.935
rfemur 0 0 0
rtibia 0
rfoot 0 0
rtoes 0
lfemur -4.02244 -6.76566 -10.756
ltibia 24.1019
lfoot -24.464 12.4036
ltoes -55.4874
491
root -0.572541 18.6558 6.07267 0.441973 -0.847303 -4.28449
lowerback 6.2257 0.241793 -1.95905
upperback -3.94541 0.234376 1.38999
thorax -7.65667 0.259105 2.5342
lowerneck -13.6938 -0.856286 -2.77359
upperneck 15.3458 -1.87913 7.25472
head 7.04792 -0.418383 2.62752
rclavicle -7.47927e-015 3.97569e-016
rhumerus -55.3417 -7.93531 -71.7788
rradius 47.0028
rwrist 10.6717
rhand -4.45456 -44.5567
rfingers 7.12502
rthumb 21.3174 -73.4043
lclavicle -7.47927e-015 3.97569e-016
lhumerus 30.7208 -20.1569 50.0645
lradius 138.42
lwrist 14.8425
lhand -23.1363 -52.7591
lfingers 7.12502
lthumb 3.31148 -22.8051
rfemur 0 0 0
rtibia 0
rfoot 0 0
rtoes 0
lfemur -3.96178 -6.60539 -10.7521
ltibia 24.0604
lfoot -24.3905 12.3525
ltoes -55.5249
492
root -0.577639 18.6563 6.06334 0.385392 -0.949469 -4.25199
lowerback 6.18669 0.274628 -1.95327
upperback -3.71745 0.278212 1.37419
thorax -7.39192 0.273817 2.50714
lowerneck -13.641 -0.84166 -2.72537
upperneck 15.9688 -1.89496 7.19005
head 7.2401 -0.420118 2.60472
rclavicle 2.06239e-015 1.27222e-014
rhumerus -55.1204 -7.72428 -72.1048
rradius 47.1903
rwrist 10.5444
rhand -4.48369 -44.4952
rfingers 7.12502
rthumb 21.2894 -73.3459
lclavicle 2.06239e-015 1.27222e-014
lhumerus 30.1412 -20.6034 50.4197
lradius 138.459
lwrist 14.9624
lhand -23.0099 -52.7992
lfingers 7.12502
lthumb 3.43355 -22.8471
rfemur 0 0 0
rtibia 0
rfoot 0 0
rtoes 0
lfemur -3.88254 -6.52234 -10.7731
ltibia 24.02
lfoot -24.3558 12.3787
ltoes -55.5211
493
root -0.582303 18.6562 6.05311 0.308327 -1.05916 -4.22345
lowerback 6.15937 0.321636 -1.90191
upperback -3.45851 0.344418 1.34882
thorax -7.10246 0.296561 2.44178
lowerneck -13.5641 -0.842686 -2.7005
upperneck 16.6634 -1.92923 7.11526
head 7.45337 -0.432506 2.58165
rclavicle 1.49089e-016 -9.93923e-015
rhumerus -54.9447 -7.44871 -72.4809
rradius 47.476
rwrist 10.3297
rhand -4.49389 -44.4493
rfingers 7.12502
rthumb 21.2796 -73.3011
lclavicle 1.49089e-016 -9.93923e-015
lhumerus 29.4946 -21.3207 51.0037
lradius 138.457
lwrist 15.051
lhand -22.8803 -52.7736
lfingers 7.12502
lthumb 3.55871 -22.8236
rfemur 0 0 0
rtibia 0
rfoot 0 0
rtoes 0
lfemur -3.78792 -6.42103 -10.7919
ltibia 23.989
lfoot -24.3271 12.3835
ltoes -55.4814
494
root -0.586254 18.6563 6.04193 0.22875 -1.15021 -4.20857
lowerback 6.18605 0.356941 -1.78049
upperback -3.24515 0.399002 1.30006
thorax -6.8918 0.311599 2.31451
lowerneck -13.3425 -0.811738 -2.70115
upperneck 17.4917 -1.91706 7.01436
head 7.68318 -0.427781 2.56074
rclavicle 1.10822e-014 3.18055e-015
rhumerus -54.8856 -7.10867 -72.903
rradius 47.8227
rwrist 10.043
rhand -4.45331 -44.4691
rfingers 7.12502
rthumb 21.3186 -73.3165
lclavicle 1.10822e-014 3.18055e-015
lhumerus 28.6134 -22.2897 51.8113
lradius 138.435
lwrist 15.2468
lhand -22.7993 -52.5788
lfingers 7.12502
lthumb 3.63695 -22.6301
rfemur 0 0 0
rtibia 0
rfoot 0 0
rtoes 0
lfemur -3.71175 -6.28573 -10.79
ltibia 23.977
lfoot -24.274 12.3514
ltoes -55.4928
495
root -0.589003 18.6558 6.03073 0.137515 -1.23739 -4.22095
lowerback 6.19098 0.391267 -1.58747
upperback -3.02702 0.458237 1.24135
thorax -6.66313 0.325887 2.13625
lowerneck -12.9588 -0.772748 -2.68826
upperneck 18.3346 -1.88445 6.84876
head 7.8882 -0.421943 2.51819
rclavicle 1.03865e-014 -1.66979e-014
rhumerus -54.8083 -6.76188 -73.354
rradius 48.1467
rwrist 9.77833
rhand -4.41362 -44.4994
rfingers 7.12502
rthumb 21.3567 -73.3425
lclavicle 1.03865e-014 -1.66979e-014
lhumerus 27.4274 -23.4402 52.8392
lradius 138.488
lwrist 15.6164
lhand -22.7837 -52.3741
lfingers 7.12502
lthumb 3.65202 -22.4256
rfemur 0 0 0
rtibia 0
rfoot 0 0
rtoes 0
lfemur -3.62767 -6.18305 -10.7644
ltibia 23.9718
lfoot -24.2531 12.3141
ltoes -55.4623
496
root -0.591217 18.6545 6.02024 0.0420484 -1.32432 -4.24411
lowerback 6.1302 0.407512 -1.39735
upperback -2.79046 0.495247 1.21554
thorax -6.37679 0.330386 1.99729
lowerneck -12.4986 -0.709547 -2.6181
upperneck 19.2259 -1.79632 6.5162
head 8.0919 -0.403336 2.41653
rclavicle -1.45113e-014 -1.03368e-014
rhumerus -54.6675 -6.35245 -73.7827
rradius 48.3968
rwrist 9.54581
rhand -4.43407 -44.4309
rfingers 7.12502
rthumb 21.3371 -73.2762
lclavicle -1.45113e-014 -1.03368e-014
lhumerus 25.8687 -24.7872 54.2154
lradius 138.655
lwrist 16.2031
lhand -22.6238 -52.1846
lfingers 7.12502
lthumb 3.80638 -22.2388
rfemur 0 0 0
rtibia 0
rfoot 0 0
rtoes 0
lfemur -3.53463 -6.10445 -10.7292
ltibia 23.9677
lfoot -24.2682 12.2382
ltoes -55.3584
497
root -0.593281 18.6536 6.01042 -0.031971 -1.37767 -4.21175
lowerback 6.06892 0.390273 -1.25303
upperback -2.59494 0.481745 1.16801
thorax -6.13224 0.312971 1.86763
lowerneck -12.0095 -0.584982 -2.50209
upperneck 20.2585 -1.62031 6.11777
head 8.33446 -0.345985 2.29597
rclavicle 6.70898e-016 8.34896e-015
rhumerus -54.5938 -5.97288 -74.1924
rradius 48.6142
rwrist 9.38141
rhand -4.43554 -44.3694
rfingers 7.12502
rthumb 21.3357 -73.2149
lclavicle 6.70898e-016 8.34896e-015
lhumerus 23.9159 -26.4286 56.0215
lradius 138.922
lwrist 17.0902
lhand -22.2454 -52.0867
lfingers 7.12502
lthumb 4.17177 -22.1478
rfemur 0 0 0
rtibia 0
rfoot 0 0
rtoes 0
lfemur -3.46908 -6.03789 -10.7541
ltibia 23.9641
lfoot -24.2505 12.1532
ltoes -55.2928
498
root -0.595718 18.6543 6.00039 -0.0751296 -1.40782 -4.13547
lowerback 6.01806 0.376091 -1.12537
upperback -2.43663 0.467562 1.06491
thorax -5.93315 0.295978 1.68963
lowerneck -11.5632 -0.449254 -2.36451
upperneck 21.457 -1.45162 5.80283
head 8.64566 -0.28082 2.20144
rclavicle -9.41742e-015 1.15295e-014
rhumerus -54.6144 -5.82566 -74.5597
rradius 48.8217
rwrist 9.37425
rhand -4.35586 -44.1894
rfingers 7.12502
rthumb 21.4122 -73.0262
lclavicle -9.41742e-015 1.15295e-014
lhumerus 21.6281 -28.386 58.2098
lradius 139.198
lwrist 18.1994
lhand -22.1711 -52.0554
lfingers 7.12502
lthumb 4.24352 -22.1179
rfemur 0 0 0
rtibia 0
rfoot 0 0
rtoes 0
lfemur -3.45325 -5.90786 -10.815
ltibia 23.9602
lfoot -24.1496 12.0889
ltoes -55.3647
499
root -0.598513 18.6564 5.99077 -0.0862598 -1.44145 -4.07158
lowerback 5.9725 0.387507 -0.960287
upperback -2.30732 0.488895 0.928002
thorax -5.76864 0.295482 1.45176
lowerneck -11.1178 -0.312592 -2.17236
upperneck 22.7192 -1.29839 5.53187
head 8.98492 -0.214263 2.11175
rclavicle -9.57894e-015 -3.57812e-015
rhumerus -54.6438 -5.91666 -74.8441
rradius 48.9505
rwrist 9.42493
rhand -4.34097 -43.9322
rfingers 7.12502
rthumb 21.4265 -72.7674
lclavicle -9.57894e-015 -3.57812e-015
lhumerus 18.9558 -30.5513 60.8263
lradius 139.497
lwrist 19.7297
lhand -22.4389 -51.9202
lfingers 7.12502
lthumb 3.98499 -21.9777
rfemur 0 0 0
rtibia 0
rfoot 0 0
rtoes 0
lfemur -3.48818 -5.69514 -10.8475
ltibia 23.9663
lfoot -24.0146 12.0169
ltoes -55.4954
500
root -0.599957 18.6586 5.98266 -0.0724992 -1.48419 -4.08897
lowerback 5.93839 0.389352 -0.701625
upperback -2.20404 0.506665 0.820456
thorax -5.63741 0.291402 1.19261
lowerneck -10.5546 -0.130711 -1.85703
upperneck 23.8592 -1.07609 5.18312
head 9.26176 -0.116068 1.97879
rclavicle -2.20154e-014 1.15295e-014
rhumerus -54.6623 -6.02416 -75.0685
rradius 49.0314
rwrist 9.40175
rhand -4.42903 -43.9721
rfingers 7.12502
rthumb 21.3419 -72.8168
lclavicle -2.20154e-014 1.15295e-014
lhumerus 15.7332 -32.7341 64.0473
lradius 139.812
lwrist 21.5316
lhand -22.8334 -51.9449
lfingers 7.12502
lthumb 3.60401 -21.9957
rfemur 0 0 0
rtibia 0
rfoot 0 0
rtoes 0
lfemur -3.54186 -5.59119 -10.8083
ltibia 23.9845
lfoot -23.9684 12.0027
ltoes -55.5258
501
root -0.599985 18.6601 5.97467 -0.0427071 -1.5439 -4.20242
lowerback 5.86713 0.376539 -0.379023
upperback -2.07624 0.512571 0.769256
thorax -5.4591 0.28075 0.957882
lowerneck -9.95956 0.0834055 -1.45239
upperneck 24.8411 -0.816383 4.85531
head 9.48118 0.00844325 1.8379
rclavicle -6.67171e-015 -4.77083e-015
rhumerus -54.6718 -6.12981 -75.2353
rradius 49.1504
rwrist 9.33239
rhand -4.4808 -44.1053
rfingers 7.12502
rthumb 21.2922 -72.9557
lclavicle -6.67171e-015 -4.77083e-015
lhumerus 11.9775 -34.7259 67.8682
lradius 140.149
lwrist 23.1347
lhand -23.233 -51.8939
lfingers 7.12502
lthumb 3.21805 -21.9385
rfemur 0 0 0
rtibia 0
rfoot 0 0
rtoes 0
lfemur -3.60142 -5.53977 -10.6713
ltibia 24.0027
lfoot -23.9527 12.0089
ltoes -55.4876
502
root -0.599618 18.6604 5.96547 -0.0175993 -1.64096 -4.2876
lowerback 5.79113 0.366255 -0.157752
upperback -1.90186 0.513751 0.738724
thorax -5.23081 0.27225 0.802329
lowerneck -9.55509 0.321046 -1.00042
upperneck 25.8021 -0.525114 4.5349
head 9.73441 0.155783 1.69438
rclavicle 9.93923e-017 -7.95139e-016
rhumerus -54.5977 -6.28243 -75.3379
rradius 49.2386
rwrist 9.28228
rhand -4.4331 -44.0526
rfingers 7.12502
rthumb 21.338 -72.8978
lclavicle 9.93923e-017 -7.95139e-016
lhumerus 7.73036 -36.3684 72.2334
lradius 140.501
lwrist 24.4225
lhand -23.6088 -51.4682
lfingers 7.12502
lthumb 2.85515 -21.5076
rfemur 0 0 0
rtibia 0
rfoot 0 0
rtoes 0
lfemur -3.63826 -5.47948 -10.5713
ltibia 24.0109
lfoot -23.9425 12.0018
ltoes -55.4022
